<?xml version="1.0" encoding="UTF-8" standalone="no"?>
<!DOCTYPE svg PUBLIC "-//W3C//DTD SVG 1.1//EN"
 "http://www.w3.org/Graphics/SVG/1.1/DTD/svg11.dtd">
<!-- Generated by graphviz version 12.1.2 (20240928.0832)
 -->
<!-- Title: G Pages: 1 -->
<svg width="246pt" height="537pt"
 viewBox="0.00 0.00 245.60 537.13" xmlns="http://www.w3.org/2000/svg" xmlns:xlink="http://www.w3.org/1999/xlink">
<g id="graph0" class="graph" transform="scale(1 1) rotate(0) translate(4 533.13)">
<title>G</title><style>.edge>path:hover{stroke-width:8}</style>
<polygon fill="white" stroke="none" points="-4,4 -4,-533.13 241.6,-533.13 241.6,4 -4,4"/>
<!-- pepsflow_cli_data -->
<g id="node1" class="node">
<title>pepsflow_cli_data</title><style>.edge>path:hover{stroke-width:8}</style>
<ellipse fill="#b03a3a" stroke="black" cx="75.8" cy="-264.56" rx="40.48" ry="31.11"/>
<text text-anchor="middle" x="75.8" y="-273.06" font-family="Helvetica,sans-Serif" font-size="10.00" fill="#ffffff">pepsflow.</text>
<text text-anchor="middle" x="75.8" y="-261.06" font-family="Helvetica,sans-Serif" font-size="10.00" fill="#ffffff">cli.</text>
<text text-anchor="middle" x="75.8" y="-249.06" font-family="Helvetica,sans-Serif" font-size="10.00" fill="#ffffff">data</text>
</g>
<!-- pepsflow_cli_main -->
<g id="node2" class="node">
<title>pepsflow_cli_main</title><style>.edge>path:hover{stroke-width:8}</style>
<ellipse fill="#9d4343" stroke="black" cx="109.8" cy="-31.11" rx="40.48" ry="31.11"/>
<text text-anchor="middle" x="109.8" y="-39.61" font-family="Helvetica,sans-Serif" font-size="10.00" fill="#ffffff">pepsflow.</text>
<text text-anchor="middle" x="109.8" y="-27.61" font-family="Helvetica,sans-Serif" font-size="10.00" fill="#ffffff">cli.</text>
<text text-anchor="middle" x="109.8" y="-15.61" font-family="Helvetica,sans-Serif" font-size="10.00" fill="#ffffff">main</text>
</g>
<!-- pepsflow_cli_data&#45;&gt;pepsflow_cli_main -->
<g id="edge1" class="edge">
<title>pepsflow_cli_data&#45;&gt;pepsflow_cli_main</title><style>.edge>path:hover{stroke-width:8}</style>
<path fill="none" stroke="black" d="M78.29,-233.25C81.25,-199.99 86.82,-145.08 94.8,-98.23 96.2,-90.01 97.97,-81.28 99.81,-72.95"/>
<polygon fill="#b03a3a" stroke="black" points="103.17,-73.93 101.98,-63.4 96.35,-72.38 103.17,-73.93"/>
</g>
<!-- pepsflow_cli_params -->
<g id="node3" class="node">
<title>pepsflow_cli_params</title><style>.edge>path:hover{stroke-width:8}</style>
<ellipse fill="#b83d3d" stroke="black" cx="143.8" cy="-129.34" rx="40.48" ry="31.11"/>
<text text-anchor="middle" x="143.8" y="-137.84" font-family="Helvetica,sans-Serif" font-size="10.00" fill="#ffffff">pepsflow.</text>
<text text-anchor="middle" x="143.8" y="-125.84" font-family="Helvetica,sans-Serif" font-size="10.00" fill="#ffffff">cli.</text>
<text text-anchor="middle" x="143.8" y="-113.84" font-family="Helvetica,sans-Serif" font-size="10.00" fill="#ffffff">params</text>
</g>
<!-- pepsflow_cli_params&#45;&gt;pepsflow_cli_main -->
<g id="edge2" class="edge">
<title>pepsflow_cli_params&#45;&gt;pepsflow_cli_main</title><style>.edge>path:hover{stroke-width:8}</style>
<path fill="none" stroke="black" d="M133.41,-98.94C130.44,-90.54 127.15,-81.22 124,-72.29"/>
<polygon fill="#b83d3d" stroke="black" points="127.38,-71.35 120.74,-63.09 120.78,-73.68 127.38,-71.35"/>
</g>
<!-- pepsflow_optimize -->
<g id="node4" class="node">
<title>pepsflow_optimize</title><style>.edge>path:hover{stroke-width:8}</style>
<ellipse fill="#b83d3d" stroke="black" cx="178.8" cy="-264.56" rx="40.48" ry="22.63"/>
<text text-anchor="middle" x="178.8" y="-267.06" font-family="Helvetica,sans-Serif" font-size="10.00" fill="#ffffff">pepsflow.</text>
<text text-anchor="middle" x="178.8" y="-255.06" font-family="Helvetica,sans-Serif" font-size="10.00" fill="#ffffff">optimize</text>
</g>
<!-- pepsflow_optimize&#45;&gt;pepsflow_cli_params -->
<g id="edge3" class="edge">
<title>pepsflow_optimize&#45;&gt;pepsflow_cli_params</title><style>.edge>path:hover{stroke-width:8}</style>
<path fill="none" stroke="black" d="M173.1,-241.86C168.07,-222.73 160.61,-194.33 154.48,-170.99"/>
<polygon fill="#b83d3d" stroke="black" points="157.9,-170.24 151.98,-161.46 151.13,-172.02 157.9,-170.24"/>
</g>
<!-- pepsflow_train_iPEPS -->
<g id="node5" class="node">
<title>pepsflow_train_iPEPS</title><style>.edge>path:hover{stroke-width:8}</style>
<ellipse fill="#cc3333" stroke="black" cx="118.8" cy="-498.01" rx="40.48" ry="31.11"/>
<text text-anchor="middle" x="118.8" y="-506.51" font-family="Helvetica,sans-Serif" font-size="10.00" fill="#ffffff">pepsflow.</text>
<text text-anchor="middle" x="118.8" y="-494.51" font-family="Helvetica,sans-Serif" font-size="10.00" fill="#ffffff">train.</text>
<text text-anchor="middle" x="118.8" y="-482.51" font-family="Helvetica,sans-Serif" font-size="10.00" fill="#ffffff">iPEPS</text>
</g>
<!-- pepsflow_train_iPEPS_reader -->
<g id="node6" class="node">
<title>pepsflow_train_iPEPS_reader</title><style>.edge>path:hover{stroke-width:8}</style>
<ellipse fill="#b83d3d" stroke="black" cx="54.8" cy="-399.79" rx="54.8" ry="31.11"/>
<text text-anchor="middle" x="54.8" y="-408.29" font-family="Helvetica,sans-Serif" font-size="10.00" fill="#ffffff">pepsflow.</text>
<text text-anchor="middle" x="54.8" y="-396.29" font-family="Helvetica,sans-Serif" font-size="10.00" fill="#ffffff">train.</text>
<text text-anchor="middle" x="54.8" y="-384.29" font-family="Helvetica,sans-Serif" font-size="10.00" fill="#ffffff">iPEPS_reader</text>
</g>
<!-- pepsflow_train_iPEPS&#45;&gt;pepsflow_train_iPEPS_reader -->
<g id="edge4" class="edge">
<title>pepsflow_train_iPEPS&#45;&gt;pepsflow_train_iPEPS_reader</title><style>.edge>path:hover{stroke-width:8}</style>
<path fill="none" stroke="black" d="M100.63,-469.7C94.18,-460 86.8,-448.9 79.88,-438.49"/>
<polygon fill="#cc3333" stroke="black" points="82.97,-436.83 74.52,-430.44 77.15,-440.7 82.97,-436.83"/>
</g>
<!-- pepsflow_train_iPEPS_trainer -->
<g id="node7" class="node">
<title>pepsflow_train_iPEPS_trainer</title><style>.edge>path:hover{stroke-width:8}</style>
<ellipse fill="#b83d3d" stroke="black" cx="182.8" cy="-399.79" rx="54.8" ry="31.11"/>
<text text-anchor="middle" x="182.8" y="-408.29" font-family="Helvetica,sans-Serif" font-size="10.00" fill="#ffffff">pepsflow.</text>
<text text-anchor="middle" x="182.8" y="-396.29" font-family="Helvetica,sans-Serif" font-size="10.00" fill="#ffffff">train.</text>
<text text-anchor="middle" x="182.8" y="-384.29" font-family="Helvetica,sans-Serif" font-size="10.00" fill="#ffffff">iPEPS_trainer</text>
</g>
<!-- pepsflow_train_iPEPS&#45;&gt;pepsflow_train_iPEPS_trainer -->
<g id="edge5" class="edge">
<title>pepsflow_train_iPEPS&#45;&gt;pepsflow_train_iPEPS_trainer</title><style>.edge>path:hover{stroke-width:8}</style>
<path fill="none" stroke="black" d="M136.97,-469.7C143.42,-460 150.8,-448.9 157.73,-438.49"/>
<polygon fill="#cc3333" stroke="black" points="160.46,-440.7 163.08,-430.44 154.63,-436.83 160.46,-440.7"/>
</g>
<!-- pepsflow_train_iPEPS_reader&#45;&gt;pepsflow_cli_data -->
<g id="edge6" class="edge">
<title>pepsflow_train_iPEPS_reader&#45;&gt;pepsflow_cli_data</title><style>.edge>path:hover{stroke-width:8}</style>
<path fill="none" stroke="black" d="M59.57,-368.56C62.44,-350.33 66.14,-326.86 69.28,-306.93"/>
<polygon fill="#b83d3d" stroke="black" points="72.72,-307.59 70.82,-297.17 65.8,-306.5 72.72,-307.59"/>
</g>
<!-- pepsflow_train_iPEPS_trainer&#45;&gt;pepsflow_optimize -->
<g id="edge7" class="edge">
<title>pepsflow_train_iPEPS_trainer&#45;&gt;pepsflow_optimize</title><style>.edge>path:hover{stroke-width:8}</style>
<path fill="none" stroke="black" d="M181.88,-368.22C181.26,-347.58 180.44,-320.32 179.81,-299.08"/>
<polygon fill="#b83d3d" stroke="black" points="183.31,-299.08 179.51,-289.19 176.31,-299.29 183.31,-299.08"/>
</g>
</g>
</svg>
