<?xml version="1.0" encoding="UTF-8" standalone="no"?>
<!DOCTYPE svg PUBLIC "-//W3C//DTD SVG 1.1//EN"
 "http://www.w3.org/Graphics/SVG/1.1/DTD/svg11.dtd">
<!-- Generated by graphviz version 12.1.2 (20240928.0832)
 -->
<!-- Title: G Pages: 1 -->
<svg width="645pt" height="173pt"
 viewBox="0.00 0.00 644.82 173.00" xmlns="http://www.w3.org/2000/svg" xmlns:xlink="http://www.w3.org/1999/xlink">
<g id="graph0" class="graph" transform="scale(1 1) rotate(0) translate(4 169)">
<title>G</title><style>.edge>path:hover{stroke-width:8}</style>
<polygon fill="white" stroke="none" points="-4,4 -4,-169 640.82,-169 640.82,4 -4,4"/>
<g id="clust1" class="cluster">
<title>cluster_pepsflow</title><style>.edge>path:hover{stroke-width:8}</style>
<polygon fill="none" stroke="black" points="8,-8 8,-157 628.82,-157 628.82,-8 8,-8"/>
<text text-anchor="middle" x="318.41" y="-139.7" font-family="Times New Roman,serif" font-size="14.00">pepsflow</text>
</g>
<!-- pepsflow_cli_data -->
<g id="node1" class="node">
<title>pepsflow_cli_data</title><style>.edge>path:hover{stroke-width:8}</style>
<ellipse fill="#b03a3a" stroke="black" cx="346.9" cy="-44" rx="28.56" ry="18"/>
<text text-anchor="middle" x="346.9" y="-40.5" font-family="Helvetica,sans-Serif" font-size="10.00" fill="#ffffff">cli.data</text>
</g>
<!-- pepsflow_cli_main -->
<g id="node2" class="node">
<title>pepsflow_cli_main</title><style>.edge>path:hover{stroke-width:8}</style>
<ellipse fill="#9d4343" stroke="black" cx="590.9" cy="-62" rx="29.92" ry="18"/>
<text text-anchor="middle" x="590.9" y="-58.5" font-family="Helvetica,sans-Serif" font-size="10.00" fill="#ffffff">cli.main</text>
</g>
<!-- pepsflow_cli_data&#45;&gt;pepsflow_cli_main -->
<g id="edge1" class="edge">
<title>pepsflow_cli_data&#45;&gt;pepsflow_cli_main</title><style>.edge>path:hover{stroke-width:8}</style>
<path fill="none" stroke="black" d="M375.85,-45.01C410.79,-46.4 472.39,-49.28 524.99,-54 533.13,-54.73 541.84,-55.68 550.14,-56.68"/>
<polygon fill="#000000" stroke="black" points="549.65,-60.14 560,-57.9 550.51,-53.2 549.65,-60.14"/>
</g>
<!-- pepsflow_cli_params -->
<g id="node3" class="node">
<title>pepsflow_cli_params</title><style>.edge>path:hover{stroke-width:8}</style>
<ellipse fill="#b83d3d" stroke="black" cx="488.3" cy="-81" rx="36.68" ry="18"/>
<text text-anchor="middle" x="488.3" y="-77.5" font-family="Helvetica,sans-Serif" font-size="10.00" fill="#ffffff">cli.params</text>
</g>
<!-- pepsflow_cli_params&#45;&gt;pepsflow_cli_main -->
<g id="edge2" class="edge">
<title>pepsflow_cli_params&#45;&gt;pepsflow_cli_main</title><style>.edge>path:hover{stroke-width:8}</style>
<path fill="none" stroke="black" d="M523.08,-74.62C531.99,-72.94 541.68,-71.11 550.84,-69.38"/>
<polygon fill="#000000" stroke="black" points="551.41,-72.83 560.58,-67.54 550.11,-65.95 551.41,-72.83"/>
</g>
<!-- pepsflow_optimize -->
<g id="node4" class="node">
<title>pepsflow_optimize</title><style>.edge>path:hover{stroke-width:8}</style>
<ellipse fill="#b83d3d" stroke="black" cx="346.9" cy="-100" rx="31.72" ry="18"/>
<text text-anchor="middle" x="346.9" y="-96.5" font-family="Helvetica,sans-Serif" font-size="10.00" fill="#ffffff">optimize</text>
</g>
<!-- pepsflow_optimize&#45;&gt;pepsflow_cli_params -->
<g id="edge3" class="edge">
<title>pepsflow_optimize&#45;&gt;pepsflow_cli_params</title><style>.edge>path:hover{stroke-width:8}</style>
<path fill="none" stroke="black" d="M378.15,-95.88C396.59,-93.36 420.54,-90.1 441.3,-87.27"/>
<polygon fill="#000000" stroke="black" points="441.51,-90.77 450.95,-85.96 440.56,-83.84 441.51,-90.77"/>
</g>
<!-- pepsflow_train_iPEPS -->
<g id="node5" class="node">
<title>pepsflow_train_iPEPS</title><style>.edge>path:hover{stroke-width:8}</style>
<ellipse fill="#cc3333" stroke="black" cx="56.29" cy="-70" rx="40.29" ry="18"/>
<text text-anchor="middle" x="56.29" y="-66.5" font-family="Helvetica,sans-Serif" font-size="10.00" fill="#ffffff">train.iPEPS</text>
</g>
<!-- pepsflow_train_iPEPS_reader -->
<g id="node6" class="node">
<title>pepsflow_train_iPEPS_reader</title><style>.edge>path:hover{stroke-width:8}</style>
<ellipse fill="#b83d3d" stroke="black" cx="187.38" cy="-39" rx="54.8" ry="22.63"/>
<text text-anchor="middle" x="187.38" y="-41.5" font-family="Helvetica,sans-Serif" font-size="10.00" fill="#ffffff">train.</text>
<text text-anchor="middle" x="187.38" y="-29.5" font-family="Helvetica,sans-Serif" font-size="10.00" fill="#ffffff">iPEPS_reader</text>
</g>
<!-- pepsflow_train_iPEPS&#45;&gt;pepsflow_train_iPEPS_reader -->
<g id="edge4" class="edge">
<title>pepsflow_train_iPEPS&#45;&gt;pepsflow_train_iPEPS_reader</title><style>.edge>path:hover{stroke-width:8}</style>
<path fill="none" stroke="black" d="M92.22,-61.61C103.31,-58.95 115.89,-55.93 128.17,-52.98"/>
<polygon fill="#000000" stroke="black" points="128.92,-56.4 137.83,-50.66 127.28,-49.59 128.92,-56.4"/>
</g>
<!-- pepsflow_train_iPEPS_trainer -->
<g id="node7" class="node">
<title>pepsflow_train_iPEPS_trainer</title><style>.edge>path:hover{stroke-width:8}</style>
<ellipse fill="#b83d3d" stroke="black" cx="187.38" cy="-102" rx="54.8" ry="22.63"/>
<text text-anchor="middle" x="187.38" y="-104.5" font-family="Helvetica,sans-Serif" font-size="10.00" fill="#ffffff">train.</text>
<text text-anchor="middle" x="187.38" y="-92.5" font-family="Helvetica,sans-Serif" font-size="10.00" fill="#ffffff">iPEPS_trainer</text>
</g>
<!-- pepsflow_train_iPEPS&#45;&gt;pepsflow_train_iPEPS_trainer -->
<g id="edge5" class="edge">
<title>pepsflow_train_iPEPS&#45;&gt;pepsflow_train_iPEPS_trainer</title><style>.edge>path:hover{stroke-width:8}</style>
<path fill="none" stroke="black" d="M92.22,-78.66C103.54,-81.47 116.41,-84.66 128.92,-87.76"/>
<polygon fill="#000000" stroke="black" points="127.76,-91.07 138.31,-90.08 129.45,-84.28 127.76,-91.07"/>
</g>
<!-- pepsflow_train_iPEPS_reader&#45;&gt;pepsflow_cli_data -->
<g id="edge6" class="edge">
<title>pepsflow_train_iPEPS_reader&#45;&gt;pepsflow_cli_data</title><style>.edge>path:hover{stroke-width:8}</style>
<path fill="none" stroke="black" d="M242.15,-40.71C263.26,-41.38 287.04,-42.13 306.5,-42.75"/>
<polygon fill="#000000" stroke="black" points="306.38,-46.25 316.49,-43.07 306.61,-39.25 306.38,-46.25"/>
</g>
<!-- pepsflow_train_iPEPS_trainer&#45;&gt;pepsflow_optimize -->
<g id="edge7" class="edge">
<title>pepsflow_train_iPEPS_trainer&#45;&gt;pepsflow_optimize</title><style>.edge>path:hover{stroke-width:8}</style>
<path fill="none" stroke="black" d="M242.59,-101.31C262.54,-101.06 284.83,-100.78 303.58,-100.54"/>
<polygon fill="#000000" stroke="black" points="303.57,-104.04 313.53,-100.41 303.48,-97.04 303.57,-104.04"/>
</g>
</g>
</svg>
